<svg width="32" height="32" viewBox="0 0 32 32" fill="none" xmlns="http://www.w3.org/2000/svg">
<g clip-path="url(#clip0_490_248)">
<path d="M6 4V10H22V12H19.9999V14H17.9999V16H30V20H28V22H16V28H2V20V8H4V4H6Z" fill="#F6A830"/>
<path d="M16 16V18H14V22H12V24H6V22H4V20H2V28H16V22H28V20H30V16H16Z" fill="#FFE880"/>
<path d="M18 24H16V28H18V24Z" fill="#FF1C90"/>
<path d="M16 4H14V8H16V4Z" fill="#F6A830"/>
<path d="M10 4V2H6V4H10Z" fill="#F6A830"/>
<path d="M8 10H12V4H8V10Z" fill="#FF7FC0"/>
<path d="M16 8H20V4H16V8Z" fill="#FF7FC0"/>
<path d="M18 24V30H22V24H18Z" fill="#FF7FC0"/>
<path d="M24 16V18H26V20H30V16H24Z" fill="#705224"/>
<path d="M18 2H16V4H18V2Z" fill="#F6A830"/>
<path d="M20 2H18V4H20V2Z" fill="#FF7FC0"/>
<path d="M24 12H22V14H24V12Z" fill="#F6A830"/>
<path d="M18 28H2V30H18V28Z" fill="black"/>
<path d="M2 28V8H0V28H2Z" fill="black"/>
<path d="M4 4H2V8H4V4Z" fill="black"/>
<path d="M8 4H6V10H8V4Z" fill="black"/>
<path d="M22 32V30H18V32H22Z" fill="black"/>
<path d="M12 18H14V12H12V18Z" fill="black"/>
<path d="M6 2H4V4H6V2Z" fill="black"/>
<path d="M16 2H14V4H16V2Z" fill="black"/>
<path d="M6 10H4V12H6V10Z" fill="black"/>
<path d="M24 10H22V12H24V10Z" fill="black"/>
<path d="M28.0001 20V22H16V24H22.0001V30H24.0001V26H26.0001V24H30.0001V20H28.0001Z" fill="black"/>
<path d="M26.0001 14V12H24.0001V14H22.0001V12H20V14H18V16H30.0001V20H32.0001V14H26.0001Z" fill="black"/>
<path d="M6 0V2H10V4H12V0H6Z" fill="black"/>
<path d="M16 0V2H20V8H14V4H12V10H22.0001V0H16Z" fill="black"/>
</g>
<defs>
<clipPath id="clip0_490_248">
<rect width="32" height="32" fill="white"/>
</clipPath>
</defs>
</svg>
