<svg width="32" height="32" viewBox="0 0 32 32" fill="none" xmlns="http://www.w3.org/2000/svg">
<g clip-path="url(#clip0_490_352)">
<path d="M4 2H8V4H10V6H12V8H20V6H22V4H24V2H28V12H30V26H28V28H26V30H6V28H4V26H2V12H4V2Z" fill="#74767F"/>
<path d="M26 30V32H6V30H26Z" fill="black"/>
<path d="M28 30H26V28H28V30Z" fill="black"/>
<path d="M28 28H26V26H28V28Z" fill="#D1CDD5"/>
<path d="M6 28H4V26H6V28Z" fill="#D1CDD5"/>
<path d="M6 30H4V28H6V30Z" fill="black"/>
<path d="M10 4H8V2H10V4Z" fill="black"/>
<path d="M12 6H10V4H12V6Z" fill="black"/>
<path d="M8 2H4V0H8V2Z" fill="black"/>
<path d="M22 2H24V4H22V2Z" fill="black"/>
<path d="M20 4H22V6H20V4Z" fill="black"/>
<path d="M20 20H22V22H20V20Z" fill="white"/>
<path d="M18 22H24V24H18V22Z" fill="white"/>
<path d="M8 22H14V24H8V22Z" fill="white"/>
<path d="M8 24H24V26H8V24Z" fill="white"/>
<path d="M6 26.001H26V28.001H6V26.001Z" fill="white"/>
<path d="M10 20H12V22H10V20Z" fill="white"/>
<path d="M12 18.0005H20V20.0004H12V18.0005Z" fill="white"/>
<path d="M24 0H28V2H24V0Z" fill="black"/>
<path d="M20 8H12V6H20V8Z" fill="black"/>
<path d="M30 28H28V26H30V28Z" fill="black"/>
<path d="M28 26H26V24H28V26Z" fill="black"/>
<path d="M4 28H2V26H4V28Z" fill="black"/>
<path d="M6 26H4V24H6V26Z" fill="black"/>
<path d="M32 26H30V12H32V26Z" fill="black"/>
<path d="M30 12H28V0H30V12Z" fill="black"/>
<path d="M4 12H2V0H4V12Z" fill="black"/>
<path d="M2 26H0V12H2V26Z" fill="black"/>
<path d="M20 5.99951H22V11.9995H20V5.99951Z" fill="#353639"/>
<path d="M10 5.99951H12V11.9995H10V5.99951Z" fill="#353639"/>
<path d="M14 7.99951H18V13.9997H14V7.99951Z" fill="#353639"/>
<path d="M24 6H26V8H24V6Z" fill="#FF7FC0"/>
<path d="M26 4H28V10H26V4Z" fill="#FF7FC0"/>
<path d="M24 17.9999H22V14H24V17.9999Z" fill="black"/>
<path d="M10 17.9999H8V14H10V17.9999Z" fill="black"/>
<path d="M8 8H6V6H8V8Z" fill="#FF7FC0"/>
<path d="M6 10H4V4H6V10Z" fill="#FF7FC0"/>
<path d="M30 22H24V20H30V22Z" fill="black"/>
<path d="M8 22H2V20H8V22Z" fill="black"/>
<path d="M26 28H6V30H26V28Z" fill="#D1CDD5"/>
<path d="M20 22H12V20H20V22Z" fill="black"/>
<path d="M18 24H14V22H18V24Z" fill="black"/>
<path d="M18 18H14V14H18V18Z" fill="white"/>
</g>
<defs>
<clipPath id="clip0_490_352">
<rect width="32" height="32" fill="white"/>
</clipPath>
</defs>
</svg>
