<svg width="32" height="32" viewBox="0 0 32 32" fill="none" xmlns="http://www.w3.org/2000/svg">
<path d="M18 4V6H14V4H6V6H4V14H2V24H4V26H8V28H24V26H28V24H30V14H28V6H26V4H18Z" fill="#6BE473"/>
<path d="M26 6V4H20V6H26Z" fill="white"/>
<path d="M26 14V12H20V14H26Z" fill="white"/>
<path d="M28 12V6H26V12H28Z" fill="white"/>
<path d="M20 12V6H18V12H20Z" fill="white"/>
<path d="M12 6V4H6V6H12Z" fill="white"/>
<path d="M12 14V12H6V14H12Z" fill="white"/>
<path d="M14 12V6H12V12H14Z" fill="white"/>
<path d="M6 12V6H4V12H6Z" fill="white"/>
<path d="M6 20V24H8V26H24V24H26V20H6Z" fill="#FFE361"/>
<path d="M24 26H8V28H24V26Z" fill="#FFB84B"/>
<path d="M26 26V24H24V26H26Z" fill="#FFB84B"/>
<path d="M7.99998 26V24H6V26H7.99998Z" fill="#FFB84B"/>
<path d="M28 26V24H26V26H28Z" fill="#008456"/>
<path d="M6.00002 26V24H4V26H6.00002Z" fill="#008456"/>
<path d="M30 22H28V24H30V22Z" fill="#008456"/>
<path d="M4 22H2V24H4V22Z" fill="#008456"/>
<path d="M28 28V26H24V28H28Z" fill="black"/>
<path d="M18 6V4H14V6H18Z" fill="black"/>
<path d="M26 4V2H18V4H26Z" fill="black"/>
<path d="M14 4V2H6V4H14Z" fill="black"/>
<path d="M8 28V26H4V28H8Z" fill="black"/>
<path d="M30 24H28V26H30V24Z" fill="black"/>
<path d="M28 4H26V6H28V4Z" fill="black"/>
<path d="M6 4H4V6H6V4Z" fill="black"/>
<path d="M4 24H2V26H4V24Z" fill="black"/>
<path d="M24 28H8V30H24V28Z" fill="black"/>
<path d="M32 24V14H30V24H32Z" fill="black"/>
<path d="M30 14V6H28V14H30Z" fill="black"/>
<path d="M4 14V6H2V14H4Z" fill="black"/>
<path d="M2 24V14H0V24H2Z" fill="black"/>
<path d="M26 12V6H20V12H26Z" fill="black"/>
<path d="M12 12V6H6V12H12Z" fill="black"/>
<path d="M26 18H6V20H26V18Z" fill="black"/>
<path d="M28 16H26V18H28V16Z" fill="black"/>
<path d="M14 14H12V16H14V14Z" fill="black"/>
<path d="M20 14H18V16H20V14Z" fill="black"/>
<path d="M6 16H4V18H6V16Z" fill="black"/>
</svg>
