<svg width="32" height="32" viewBox="0 0 32 32" fill="none" xmlns="http://www.w3.org/2000/svg">
<path d="M24 4H8V6H6V8H4V10H2V16H4V18H6V20H8V22H10V24H12V26H14V28H18V26H20V24H22V22H24V20H26V18H28V16H30V10H28V8H26V6H24V4Z" fill="#00BBFF"/>
<path d="M16 26H14V28H16V26Z" fill="#4282D8"/>
<path d="M14 24H12V26H14V24Z" fill="#4282D8"/>
<path d="M12 22H10V24H12V22Z" fill="#4282D8"/>
<path d="M10 20H8V22H10V20Z" fill="#4282D8"/>
<path d="M8 18H6V20H8V18Z" fill="#4282D8"/>
<path d="M6 16H4V18H6V16Z" fill="#4282D8"/>
<path d="M4 14H2V16H4V14Z" fill="#4282D8"/>
<path d="M8 6H6V8H8V6Z" fill="white"/>
<path d="M6 8H4V10H6V8Z" fill="white"/>
<path d="M24.0001 14V16H22.0001V18H20V20H18V22H16V26H18V24H20V22H22.0001V20H24.0001V18H26.0001V16H28.0001V14H24.0001Z" fill="#4282D8"/>
<path opacity="0.5" d="M8 14V16H10V18H12V20H14V22H16V26H14V24H12V22H10V20H8V18H6V16H4V14H8Z" fill="white"/>
<path d="M4 10H2V14H4V10Z" fill="white"/>
<path d="M8 4V6H24V4H8Z" fill="white"/>
<path d="M15.9961 13.9919V21.992H13.9961V19.9919H11.9961V17.9919H9.99609V15.9919H7.99609V13.9919H15.9961Z" fill="white"/>
<path d="M15.9961 13.9919H23.9961V11.9919H21.9961V9.99194H19.9961V7.99194H17.9961V5.99194H15.9961V13.9919Z" fill="white"/>
<path opacity="0.5" d="M29.9961 9.99194V13.9919H23.9961V5.99194H25.9961V7.99194H27.9961V9.99194H29.9961Z" fill="white"/>
<path d="M8 6V12H10V10H12V8H14V6H8Z" fill="#4282D8"/>
<path d="M4 8H2V10H4V8Z" fill="black"/>
<path d="M4 16H2V18H4V16Z" fill="black"/>
<path d="M6 18H4V20H6V18Z" fill="black"/>
<path d="M8 20H6V22H8V20Z" fill="black"/>
<path d="M10 22H8V24H10V22Z" fill="black"/>
<path d="M12 24H10V26H12V24Z" fill="black"/>
<path d="M14 26H12V28H14V26Z" fill="black"/>
<path d="M6 6H4V8H6V6Z" fill="black"/>
<path d="M8 4H6V6H8V4Z" fill="black"/>
<path d="M28 10H30V8H28V10Z" fill="black"/>
<path d="M28 18H30V16H28V18Z" fill="black"/>
<path d="M26 20H28V18H26V20Z" fill="black"/>
<path d="M24 22H26V20H24V22Z" fill="black"/>
<path d="M22 24H24V22H22V24Z" fill="black"/>
<path d="M20 26H22V24H20V26Z" fill="black"/>
<path d="M18 28H20V26H18V28Z" fill="black"/>
<path d="M26 8H28V6H26V8Z" fill="black"/>
<path d="M24 6H26V4H24V6Z" fill="black"/>
<path d="M2 10H0V16H2V10Z" fill="black"/>
<path d="M32 10H30V16H32V10Z" fill="black"/>
<path d="M14 28V30H18V28H14Z" fill="black"/>
<path d="M8 2V4H24V2H8Z" fill="black"/>
</svg>
