<svg width="32" height="32" viewBox="0 0 32 32" fill="none" xmlns="http://www.w3.org/2000/svg">
<g clip-path="url(#clip0_485_63)">
<path d="M12 26H10V24H12V26ZM4 22H2V18H4V22ZM8 12H4V14H2V10H8V12ZM28 12H24V10H28V12ZM14 4H12V8H10V2H14V4ZM22 4H18V2H22V4Z" fill="white"/>
<path d="M18 24H20V28H10V26H12V22H18V24ZM28 14H26V18H28V22H24V20H22V18H20V14H22V12H28V14ZM10 20H4V12H10V20ZM20 8H18V10H12V4H20V8Z" fill="#35ED3B"/>
<path d="M14 30H10V28H14V30ZM20 28V24H22V30H18V28H20ZM20 24H18V22H20V24ZM8 22H4V20H8V22ZM18 22H14V20H18V22ZM30 22H28V18H30V22ZM12 18H10V14H12V18ZM28 18H26V14H28V18ZM30 14H28V10H30V14ZM18 12H14V10H18V12ZM20 10H18V8H20V10ZM22 8H20V4H22V8Z" fill="#29BB21"/>
<path d="M30 30H28V28H30V30ZM28 28H26V26H28V28ZM26 26H24V24H26V26ZM10 24H8V22H10V24ZM24 24H22V22H24V24ZM12 22H10V20H12V22ZM22 22H20V20H22V22ZM14 20H12V18H14V20ZM20 20H18V18H20V20ZM18 18H14V14H18V18ZM14 14H12V12H14V14ZM20 14H18V12H20V14ZM12 12H10V10H12V12ZM22 12H20V10H22V12ZM10 10H8V8H10V10ZM24 10H22V8H24V10Z" fill="#006638"/>
<path d="M14 32H10V30H14V32ZM22 32H18V30H22V32ZM30 30V28H32V32H28V30H30ZM10 30H8V24H10V30ZM18 30H14V28H18V30ZM24 26H26V28H24V30H22V24H24V26ZM28 30H26V28H28V30ZM30 28H28V26H30V28Z" fill="black"/>
<path d="M30 24H28V26H26V24H24V22H30V24ZM8 24H2V22H8V24ZM12 24H10V22H12V24ZM22 24H20V22H22V24ZM2 22H0V18H2V22ZM10 22H8V20H10V22ZM14 22H12V20H14V22ZM20 22H18V20H20V22ZM24 22H22V20H24V22ZM32 22H30V18H32V22ZM12 20H10V18H12V20ZM18 20H14V18H18V20ZM22 20H20V18H22V20ZM4 18H2V14H4V18ZM14 18H12V14H14V18ZM20 18H18V14H20V18ZM30 18H28V14H30V18ZM2 14H0V10H2V14ZM12 14H10V12H12V14ZM18 14H14V12H18V14ZM22 14H20V12H22V14ZM32 14H30V10H32V14ZM10 12H8V10H10V12ZM14 12H12V10H14V12ZM20 12H18V10H20V12ZM24 12H22V10H24V12ZM8 10H2V8H8V10ZM12 10H10V8H12V10ZM22 10H20V8H22V10ZM30 10H24V8H30V10ZM10 8H8V2H10V8ZM24 8H22V2H24V8ZM18 4H14V2H18V4ZM14 2H10V0H14V2ZM22 2H18V0H22V2Z" fill="black"/>
</g>
<defs>
<clipPath id="clip0_485_63">
<rect width="32" height="32" fill="white"/>
</clipPath>
</defs>
</svg>
