<svg width="32" height="32" viewBox="0 0 32 32" fill="none" xmlns="http://www.w3.org/2000/svg">
<g clip-path="url(#clip0_485_71)">
<path d="M18 20H14V16H18V20Z" fill="#FCF4A9"/>
<path d="M18 20V22H14V20H18ZM10 20H8V18H10V20ZM14 20H12V16H14V20ZM20 20H18V16H20V20ZM24 20H22V18H24V20ZM18 16H14V14H18V16ZM12 12H10V10H12V12ZM22 12H20V10H22V12Z" fill="#B3269C"/>
<path d="M18 26H16V24H18V26ZM14 24H12V22H14V24ZM20 24H18V22H20V24ZM12 22H10V20H12V22ZM22 22H20V20H22V22ZM12 16H10V12H12V16ZM22 16H20V14H18V12H22V16Z" fill="#FF7CDE"/>
<path d="M16 30H14V28H16V30ZM10 6H8V8H6V4H10V6Z" fill="#0E7941"/>
<path d="M18 30H16V28H18V30ZM26 8H24V6H22V4H26V8Z" fill="#054725"/>
<path d="M22 30H20V28H22V30ZM6 28H4V22H6V28ZM20 28H18V26H20V28ZM8 22H6V20H8V22ZM4 16H2V10H6V12H4V16ZM14 14H12V12H14V14ZM30 12H24V10H30V12ZM16 4H14V2H16V4Z" fill="white"/>
<path d="M10 22H12V24H16V26H14V28H12V30H6V28H8V26H6V22H8V20H10V22ZM26 22H28V28H26V26H24V28H26V30H22V28H20V26H18V24H20V22H22V20H26V22ZM10 18H4V12H6V10H10V18ZM24 12H30V16H28V18H22V10H24V12ZM18 4H20V6H22V10H20V12H12V10H10V6H12V4H16V2H18V4Z" fill="#FD99E9"/>
<path d="M6 30H4V28H6V30ZM28 30H26V28H28V30ZM8 28H6V26H8V28ZM26 28H24V26H26V28ZM18 24H14V22H18V24ZM14 22H12V20H14V22ZM20 22H18V20H20V22ZM12 20H10V16H12V20ZM22 20H20V16H22V20ZM14 16H12V14H14V16ZM20 16H18V14H20V16ZM18 14H14V12H18V14Z" fill="#FF4CD2"/>
<path d="M12 32H4V30H12V32ZM18 32H14V30H18V32ZM28 30V32H20V30H28ZM8 20H6V22H4V30H2V20H4V18H8V20ZM14 30H12V28H14V30ZM20 30H18V28H20V30ZM28 20H30V30H28V22H26V20H24V18H28V20ZM18 28H14V26H18V28ZM4 18H2V16H4V18ZM30 18H28V16H30V18ZM10 4H6V8H8V6H10V10H2V16H0V8H4V2H10V4ZM28 8H32V16H30V10H22V6H24V8H26V4H22V2H28V8ZM12 6H10V4H12V6ZM22 6H20V4H22V6ZM14 4H12V2H14V4ZM20 4H18V2H20V4ZM18 2H14V0H18V2Z" fill="black"/>
</g>
<defs>
<clipPath id="clip0_485_71">
<rect width="32" height="32" fill="white"/>
</clipPath>
</defs>
</svg>
