<svg width="32" height="32" viewBox="0 0 32 32" fill="none" xmlns="http://www.w3.org/2000/svg">
<g clip-path="url(#clip0_485_82)">
<path d="M14 12H10V10H12V8H14V12ZM20 10H22V12H18V8H20V10ZM10 10H8V8H10V10ZM24 10H22V8H24V10ZM8 8H6V6H8V8ZM26 8H24V6H26V8Z" fill="#003E22"/>
<path d="M16 18H14V8H16V18Z" fill="#14A95C"/>
<path fill-rule="evenodd" clip-rule="evenodd" d="M12 6H14V8H12V10H10V8H8V10H4V4H12V6ZM6 8H8V6H6V8Z" fill="#14A95C"/>
<path d="M28 6H24V8H22V10H20V6H22V4H28V6Z" fill="#14A95C"/>
<path d="M18 18H16V8H18V18ZM10 12H6V10H10V12ZM30 8H28V10H26V12H22V10H24V8H26V6H28V4H30V8Z" fill="#027D46"/>
<path d="M26 22V24H6V22H26Z" fill="#FD7531"/>
<path d="M8 28H6V24H8V28ZM10 22H6V20H10V22ZM4 8H2V4H4V8ZM20 8H18V6H20V8ZM22 6H20V4H22V6ZM10 4H4V2H10V4ZM28 4H22V2H28V4Z" fill="white"/>
<path d="M24 28H8V24H24V28ZM26 22H10V20H26V22Z" fill="#FFC781"/>
<path d="M24 28V30H8V28H24ZM26 28H24V24H26V28Z" fill="#FFAE49"/>
<path d="M24 30V32H8V30H24ZM8 30H6V28H8V30ZM26 30H24V28H26V30ZM14 18H18V12H26V14H20V18H28V28H26V20H6V28H4V18H12V14H6V12H14V18ZM6 12H4V10H6V12ZM28 12H26V10H28V12ZM4 10H2V8H4V10ZM30 10H28V8H30V10ZM2 8H0V4H2V8ZM18 8H14V6H18V8ZM32 8H30V4H32V8ZM14 6H12V4H14V6ZM20 6H18V4H20V6ZM4 4H2V2H4V4ZM12 4H10V2H12V4ZM22 4H20V2H22V4ZM30 4H28V2H30V4ZM10 2H4V0H10V2ZM28 2H22V0H28V2Z" fill="black"/>
</g>
<defs>
<clipPath id="clip0_485_82">
<rect width="32" height="32" fill="white"/>
</clipPath>
</defs>
</svg>
