<svg width="32" height="32" viewBox="0 0 32 32" fill="none" xmlns="http://www.w3.org/2000/svg">
<g clip-path="url(#clip0_485_94)">
<path d="M10 24H8V22H10V24ZM14 24H12V20H10V18H12V12H14V24ZM10 18H8V16H10V18ZM8 16H6V14H8V16ZM6 14H4V12H6V14Z" fill="#730E17"/>
<path d="M10 24V22H8V20H4V14H6V16H8V14H6V12H10V14H12V18H10V16H8V18H10V20H12V26H6V24H10ZM14 12H12V10H14V12ZM16 6H14V4H16V6Z" fill="#FF514C"/>
<path d="M18 26H16V8H18V14H20V16H18V20H20V22H18V26ZM24 24H22V22H24V24ZM22 20H20V18H22V20ZM24 18H22V16H24V18ZM26 16H24V14H26V16ZM28 14H26V12H28V14ZM20 8H18V6H20V8Z" fill="#4E0B11"/>
<path d="M4 28H2V26H4V28ZM6 26H4V24H6V26ZM8 24H6V22H8V24ZM8 12H4V16H2V10H8V12ZM24 14H22V12H24V14ZM26 12H24V10H26V12ZM14 10H12V4H14V10ZM18 4H14V2H18V4Z" fill="white"/>
<path d="M30 26V28H20V26H30ZM28 20H24V18H28V20ZM30 16H28V14H30V16Z" fill="#AC1F2B"/>
<path d="M16 30H14V6H16V4H20V6H18V8H16V30ZM10 28H4V26H10V28ZM24 22H22V24H24V22H26V24H28V26H18V22H20V20H22V18H24V22Z" fill="#EB2823"/>
<path d="M24 16H22V18H20V20H18V16H20V14H24V16ZM28 18H24V16H26V14H28V18ZM20 14H18V8H20V14ZM26 14H24V12H26V14ZM30 14H28V12H26V10H30V14Z" fill="#EB2823"/>
<path d="M14 30H16V26H20V28H18V32H12V28H10V26H12V24H14V30ZM10 30H2V28H10V30ZM30 30H20V28H30V30ZM2 28H0V26H2V28ZM32 28H30V26H32V28ZM4 26H2V24H4V26ZM30 26H28V24H30V26ZM8 22H6V24H4V20H8V22ZM28 24H26V22H24V20H28V24ZM4 20H2V16H4V20ZM30 20H28V16H30V20ZM8 10H2V16H0V8H8V10ZM22 10H24V8H32V16H30V10H24V12H22V14H20V4H22V10ZM12 14H10V12H8V10H10V4H12V14ZM14 4H12V2H14V4ZM20 4H18V2H20V4ZM18 2H14V0H18V2Z" fill="black"/>
</g>
<defs>
<clipPath id="clip0_485_94">
<rect width="32" height="32" fill="white"/>
</clipPath>
</defs>
</svg>
