<svg width="32" height="32" viewBox="0 0 32 32" fill="none" xmlns="http://www.w3.org/2000/svg">
<g clip-path="url(#clip0_485_104)">
<path d="M4 24H6V26H8V28H10V26H12V28H14V30H6V28H4V26H2V20H4V24ZM10 26H8V24H10V26ZM22 4H12V6H10V8H8V24H6V6H8V4H10V2H22V4Z" fill="#2DC92D"/>
<path d="M4 20H2V18H4V20ZM16 20H14V18H16V20ZM18 14H16V8H18V14ZM20 8H18V6H20V8Z" fill="white"/>
<path d="M16 22H14V20H16V22ZM18 20H16V18H18V20ZM28 20H24V18H28V20ZM20 18H18V16H20V18ZM24 18H22V16H24V18ZM22 16H20V12H22V16ZM24 12H22V6H24V12Z" fill="#480733"/>
<path d="M22 18H24V20H22V22H16V20H18V18H20V16H22V18Z" fill="#800E6F"/>
<path d="M28 20V18H30V22H24V20H28ZM22 12H20V16H18V18H16V14H18V8H20V6H22V12ZM26 8H28V18H24V16H22V12H24V6H26V8Z" fill="#E011AC"/>
<path d="M10 28H8V26H10V28ZM8 26H6V24H8V26ZM6 24H4V22H6V24ZM24 6H18V4H24V6Z" fill="#096A4C"/>
<path d="M4 28H6V30H14V28H16V32H4V30H2V26H4V28Z" fill="black"/>
<path d="M14 28H12V26H14V28ZM6 22H4V18H2V26H0V14H2V16H4V6H6V22ZM12 26H10V24H12V26ZM10 24H8V8H10V24ZM22 24H14V22H22V24ZM30 24H24V22H30V24ZM14 22H12V18H14V22ZM24 22H22V20H24V22ZM32 22H30V18H32V22ZM16 18H14V8H16V18ZM30 18H28V8H30V18ZM12 8H10V6H12V8ZM18 8H16V6H12V4H18V8ZM28 8H26V6H28V8ZM8 6H6V4H8V6ZM26 6H24V4H26V6ZM10 4H8V2H10V4ZM24 4H22V2H24V4ZM22 2H10V0H22V2Z" fill="black"/>
</g>
<defs>
<clipPath id="clip0_485_104">
<rect width="32" height="32" fill="white"/>
</clipPath>
</defs>
</svg>
