<svg width="32" height="32" viewBox="0 0 32 32" fill="none" xmlns="http://www.w3.org/2000/svg">
<g clip-path="url(#clip0_485_114)">
<path d="M14 10H16V12H14V10Z" fill="white"/>
<path d="M12 20H14V22H12V24H10V26H4V24H6V22H4V24H2V20H4V18H12V20ZM28 20H30V24H28V22H26V24H28V26H22V24H20V22H18V20H20V18H28V20ZM12 16H4V10H6V8H12V16ZM26 10H28V16H20V8H26V10Z" fill="#0DA9FE"/>
<path d="M10 28H4V26H10V28ZM28 26V28H22V26H28ZM4 26H2V24H4V26ZM12 26H10V24H12V26ZM22 26H20V24H22V26ZM30 26H28V24H30V26ZM6 24H4V22H6V24ZM14 24H12V22H14V24ZM20 24H18V22H20V24ZM28 24H26V22H28V24ZM4 12H2V10H4V12ZM30 12H28V10H30V12ZM10 8H6V10H4V6H10V8ZM28 10H26V8H22V6H28V10Z" fill="#9AF2FF"/>
<path d="M8 30H4V28H8V30ZM28 28V30H24V28H28ZM4 28H2V26H4V28ZM30 28H28V26H30V28ZM14 20H12V18H14V20ZM20 20H18V18H20V20ZM12 18H6V16H12V18ZM26 18H20V16H26V18ZM6 4H8V6H4V10H2V2H6V4ZM30 10H28V6H24V4H26V2H30V10Z" fill="#5C0084"/>
<path d="M8 32H4V30H8V32ZM28 32H24V30H28V32ZM4 30H2V28H4V30ZM10 30H8V28H10V30ZM24 30H22V28H24V30ZM30 30H28V28H30V30ZM2 28H0V20H2V28ZM12 28H10V26H12V28Z" fill="black"/>
<path fill-rule="evenodd" clip-rule="evenodd" d="M18 8H20V18H18V24H20V26H18V28H14V26H12V24H14V18H12V8H14V6H18V8ZM14 12H16V10H14V12Z" fill="black"/>
<path d="M22 28H20V26H22V28ZM32 28H30V20H32V28ZM4 20H2V18H4V20ZM30 20H28V18H30V20ZM6 18H4V16H6V18ZM28 18H26V16H28V18ZM2 12H4V16H2V14H0V2H2V12ZM32 14H30V16H28V12H30V2H32V14ZM12 8H10V6H12V8ZM22 8H20V6H22V8ZM10 6H8V4H10V6ZM14 6H12V2H14V6ZM20 6H18V2H20V6ZM24 6H22V4H24V6ZM8 4H6V2H8V4ZM26 4H24V2H26V4ZM6 2H2V0H6V2ZM12 2H10V0H12V2ZM22 2H20V0H22V2ZM30 2H26V0H30V2Z" fill="black"/>
</g>
<defs>
<clipPath id="clip0_485_114">
<rect width="32" height="32" fill="white"/>
</clipPath>
</defs>
</svg>
