<svg width="32" height="32" viewBox="0 0 32 32" fill="none" xmlns="http://www.w3.org/2000/svg">
<g clip-path="url(#clip0_485_123)">
<path d="M18 26H16V24H18V26ZM16 24H14V22H16V24ZM14 22H12V18H14V22ZM24 20H22V18H24V20ZM22 18H20V16H22V18ZM26 18H24V16H26V18ZM24 16H22V14H24V16ZM4 12H2V10H4V12ZM16 10H12V8H16V10ZM8 4H6V2H8V4Z" fill="white"/>
<path d="M16 26H14V24H16V26ZM24 24V22H26V20H28V14H26V12H24V10H16V8H26V10H28V12H30V24H26V26H18V24H24ZM14 24H12V22H14V24Z" fill="#C7531A"/>
<path d="M20 20H24V22H16V18H18V16H20V20ZM26 20H24V18H26V20Z" fill="#C7531A"/>
<path d="M24 14H18V16H16V18H12V16H14V14H16V12H24V14ZM26 16H24V14H26V16ZM16 12H14V10H16V12Z" fill="#C7531A"/>
<path d="M26 26V28H14V26H26ZM14 26H12V24H14V26ZM28 26H26V24H28V26ZM12 24H10V18H12V24ZM24 24H16V22H24V24ZM16 22H14V18H16V22ZM26 22H24V20H26V22ZM22 20H20V18H22V20ZM28 20H26V14H28V20ZM18 18H16V16H18V18ZM24 18H22V16H24V18ZM22 16H18V14H22V16ZM16 14H14V12H16V14ZM26 14H24V12H26V14ZM24 12H16V10H24V12Z" fill="#7E1B1B"/>
<path d="M10 30H8V28H10V30ZM8 28H6V26H8V28ZM6 26H4V24H6V26ZM6 10H10V12H12V16H4V24H2V12H4V4H6V10Z" fill="#E6D23B"/>
<path d="M10 26H12V28H10V26ZM14 30H10V28H14V30ZM30 28V30H26V28H30ZM6 18H8V20H10V28H8V26H6V24H4V16H6V18ZM10 8H8V6H10V8ZM12 6H10V4H12V6ZM14 4H12V2H14V4Z" fill="#B86F00"/>
<path d="M26 30H30V28H32V32H8V30H14V28H26V30ZM8 30H6V28H8V30ZM6 28H4V26H6V28ZM14 28H12V26H14V28ZM30 28H26V26H28V24H30V28ZM4 26H2V24H4V26ZM12 26H10V24H12V26ZM2 24H0V10H2V24ZM32 24H30V12H32V24ZM12 18H10V20H8V18H6V16H12V18ZM10 2H12V0H16V4H14V2H12V4H10V6H8V8H10V6H12V4H14V6H26V8H12V10H14V16H12V12H10V10H6V4H8V2H6V0H10V2ZM30 12H28V10H30V12ZM4 10H2V4H4V10ZM28 10H26V8H28V10ZM6 4H4V2H6V4Z" fill="black"/>
</g>
<defs>
<clipPath id="clip0_485_123">
<rect width="32" height="32" fill="white"/>
</clipPath>
</defs>
</svg>
