<svg width="32" height="32" viewBox="0 0 32 32" fill="none" xmlns="http://www.w3.org/2000/svg">
<g clip-path="url(#clip0_485_133)">
<path d="M6 28H4V26H6V28ZM4 26H2V24H4V26ZM10 26H6V24H4V22H10V26ZM24 20H28V22H26V26H22V24H20V20H22V18H24V20ZM30 24H28V22H30V24ZM14 10H12V8H10V14H14V16H12V20H10V18H8V6H10V4H12V2H14V10ZM22 10H24V12H22V14H20V8H22V10ZM20 8H18V6H20V8Z" fill="#1DAA5A"/>
<path d="M30 22H28V20H30V22ZM28 20H24V18H28V20ZM24 10H22V8H24V10ZM22 8H20V6H22V8ZM20 6H18V4H20V6ZM18 4H14V2H18V4Z" fill="white"/>
<path d="M8 28H6V26H8V28ZM6 26H4V24H6V26ZM10 20H12V24H10V22H8V18H10V20ZM24 18H22V20H20V14H22V12H24V18ZM12 10H14V14H10V8H12V10ZM18 8H14V4H18V8Z" fill="#05562C"/>
<path d="M20 24H22V26H28V24H30V28H28V30H22V28H20V26H18V10H16V20H14V26H12V28H10V30H4V28H8V26H10V24H12V16H14V8H20V24ZM4 28H2V26H4V28Z" fill="#E6CF1E"/>
<path d="M10 32H4V30H10V32ZM28 30V32H22V30H28ZM4 30H2V28H4V30ZM12 30H10V28H12V30ZM22 30H20V28H22V30ZM30 30H28V28H30V30ZM2 28H0V24H2V28ZM14 28H12V26H14V28ZM20 28H18V26H20V28ZM32 28H30V20H32V28ZM18 26H14V20H16V10H18V26ZM28 26H26V22H28V26ZM4 24H2V22H4V24ZM8 22H4V20H6V6H8V22ZM30 20H28V18H30V20ZM26 16H28V18H24V8H26V16ZM32 18H30V14H32V18ZM30 14H28V12H30V14ZM24 8H22V6H24V8ZM10 6H8V4H10V6ZM22 6H20V4H22V6ZM12 4H10V2H12V4ZM20 4H18V2H20V4ZM18 2H12V0H18V2Z" fill="black"/>
</g>
<defs>
<clipPath id="clip0_485_133">
<rect width="32" height="32" fill="white"/>
</clipPath>
</defs>
</svg>
