<svg width="32" height="32" viewBox="0 0 32 32" fill="none" xmlns="http://www.w3.org/2000/svg">
<g clip-path="url(#clip0_485_148)">
<path d="M16 10V12H10V10H16ZM10 10H8V8H10V10ZM22 10H20V8H22V10ZM8 8H6V4H8V8ZM20 8H18V6H20V8ZM18 6H16V4H18V6ZM16 4H14V2H16V4Z" fill="#B7DBF6"/>
<path d="M18 12H16V10H10V8H8V2H12V4H14V6H16V8H18V12ZM26 14H28V16H26V14Z" fill="white"/>
<path d="M26 16H28V18H24V14H26V16Z" fill="#B7DBF6"/>
<path d="M8 22H6V20H8V22ZM12 22H10V20H12V22ZM20 22H18V20H16V14H18V12H20V22ZM14 20H12V18H14V20ZM8 18H6V16H8V18ZM14 16H12V18H10V14H14V16ZM8 14H6V12H8V14Z" fill="#FAE330"/>
<path d="M14 26H10V22H12V20H14V26ZM18 22H22V24H20V26H16V20H18V22ZM8 24H6V22H8V24ZM8 16H6V18H8V20H6V22H4V14H8V16ZM12 20H10V18H12V20ZM14 18H12V16H14V18Z" fill="#E79418"/>
<path d="M10 32H8V30H10V32ZM16 32H14V30H16V32Z" fill="black"/>
<path fill-rule="evenodd" clip-rule="evenodd" d="M24 10H26V6H28V10H30V12H32V22H30V24H24V28H22V26H20V28H18V30H16V28H12V30H10V28H8V26H6V24H8V12H6V8H8V10H10V12H18V8H20V10H22V8H20V6H22V4H24V10ZM10 26H14V14H10V26ZM18 14H16V26H20V24H22V22H20V12H18V14ZM24 18H28V14H24V18Z" fill="black"/>
<path d="M22 30H20V28H22V30ZM6 24H4V22H6V24ZM4 22H2V18H0V16H2V14H4V22ZM6 14H4V12H6V14ZM6 8H4V4H6V8ZM18 8H16V6H18V8ZM16 6H14V4H16V6ZM20 6H18V4H20V6ZM30 6H28V4H30V6ZM8 4H6V2H8V4ZM14 4H12V2H14V4ZM18 4H16V2H18V4ZM26 4H24V2H26V4ZM12 2H8V0H12V2ZM16 2H14V0H16V2Z" fill="black"/>
</g>
<defs>
<clipPath id="clip0_485_148">
<rect width="32" height="32" fill="white"/>
</clipPath>
</defs>
</svg>
